<svg xmlns="http://www.w3.org/2000/svg" width="80" height="80" viewBox="0 0 80 80">
    <g fill="none" fill-rule="evenodd">
        <path d="M0 0h80v80H0z"/>
        <path fill="#F8E1E0" fill-rule="nonzero" d="M76.78 64.92L40.1 59.18a.57.57 0 0 0-.26 0L3.22 64.92a1 1 0 0 1-1.09-1.09v-48A1.07 1.07 0 0 1 3 14.72l36.84-5.79h.26L77 14.72c.507.116.858.58.83 1.1v48a1 1 0 0 1-1.05 1.1z"/>
        <path fill="#B8B8B8" fill-rule="nonzero" d="M40 12.33l29.21 11.11v43.41l-27.8-10.59h-.11a4 4 0 0 0-2.6 0h-.11l-27.8 10.59V23.44L40 12.33M40 9a.84.84 0 0 0-.27 0L8.28 21a1.1 1.1 0 0 0-.69 1v48a1 1 0 0 0 .95 1.11 1 1 0 0 0 .28 0l30.91-11.86a.75.75 0 0 1 .54 0L71.18 71a1 1 0 0 0 .28 0 1 1 0 0 0 1-1.11V22a1.1 1.1 0 0 0-.74-1L40.27 9A.84.84 0 0 0 40 9z"/>
        <path stroke="#B8B8B8" stroke-linecap="round" stroke-linejoin="round" stroke-width="3.2" d="M17.47 31.14l15.12-6.38M17.47 39.29l15.12-6.38M17.47 47.45l15.12-6.38M17.47 55.6l8.91-4.25M47.41 41.07v8.16l15.12 6.37v-8.15zM62.53 31.14l-15.12-6.38M62.53 39.29l-15.12-6.38"/>
        <path stroke="#B8B8B8" stroke-linecap="round" stroke-linejoin="round" stroke-width="3" d="M40 13.05v43.12"/>
    </g>
</svg>
