<svg xmlns="http://www.w3.org/2000/svg" width="80" height="80" viewBox="0 0 80 80">
    <g fill="none" fill-rule="evenodd">
        <path d="M0 0h80v80H0z"/>
        <path fill="#F8E1E0" fill-rule="nonzero" d="M31.64 52.23l.13-.13a17.8 17.8 0 0 0 3.63-7.36 11 11 0 0 0-.25-5.56c-.89-3-2.94-4.88-4.91-6.74a16.63 16.63 0 0 1-3.73-4.37l-.16-.3a7.19 7.19 0 0 1-1.06-3 1.68 1.68 0 0 0-1.5-1.69A1.65 1.65 0 0 0 22 24.5l-4.78 29a9.56 9.56 0 0 0-4.67-2.14c-4.48-.71-8.62 1.64-9.21 5.2-.59 3.56 2.58 7.12 7.07 7.86 4.49.74 8.63-1.58 9.22-5.17l3.13-19a11.87 11.87 0 0 1 6.09 10.12c-.24.28-.5.54-.78.78a1.652 1.652 0 0 0 2.09 2.56 12.27 12.27 0 0 0 1.48-1.48zM58.58 51.56a10.94 10.94 0 0 0-1.66-5.31c-1.61-2.64-4.08-4-6.47-5.27a16.64 16.64 0 0 1-4.72-3.28l-.22-.25a7.26 7.26 0 0 1-1.79-2.59 1.65 1.65 0 0 0-3.25.53l2.77 29.29a9.64 9.64 0 0 0-5.06-.88c-4.53.43-7.94 3.73-7.59 7.36.35 3.63 4.31 6.22 8.84 5.84 4.53-.38 7.94-3.77 7.57-7.4l-1.79-19.16a11.88 11.88 0 0 1 8.47 8.24 10 10 0 0 1-.55 1 1.65 1.65 0 0 0 2.67 1.93 11.75 11.75 0 0 0 1.05-1.81l.09-.16a17.7 17.7 0 0 0 1.64-8.08z"/>
        <path stroke="#B8B8B8" stroke-linecap="round" stroke-linejoin="round" stroke-width="3.2" d="M54.66 32.73a10.61 10.61 0 0 0-1.85-2A9.85 9.85 0 0 0 46 28.48a13.14 13.14 0 0 0-7.88 3.25 15.17 15.17 0 0 0-3.44 4.84 23.62 23.62 0 0 1-1.21 2.16c-1.67 2.61-4.73 4-7.21 5l-1.86.71.87 1.79C27 49.88 31.15 52 35.46 52.75a22.77 22.77 0 0 0 5.54.32h.54c5.62-.51 12.26-3.23 14.61-9.41a10.92 10.92 0 0 0 .7-3.13 11.75 11.75 0 0 0-2.19-7.8zM50 28.14L71.6 4.19a3.09 3.09 0 0 1 4.21-.61A3.1 3.1 0 0 1 76 7.83L56.35 33.45"/>
    </g>
</svg>
