<svg xmlns="http://www.w3.org/2000/svg" width="80" height="80" viewBox="0 0 80 80">
    <g fill="none" fill-rule="evenodd">
        <path d="M0 0h80v80H0z"/>
        <path fill="#F8E1E0" fill-rule="nonzero" d="M42.19 39.05c-8.468-8.473-22.046-8.957-31.095-1.107C2.046 45.793.607 59.303 7.8 68.883c7.192 9.579 20.567 11.966 30.63 5.467l4.4 1.2A2.93 2.93 0 0 0 46.42 72l-1.2-4.4a22.83 22.83 0 0 0-3.03-28.55z"/>
        <path fill="#B8B8B8" fill-rule="nonzero" d="M51.4 5.2a22.13 22.13 0 1 1-12 40.72 3.16 3.16 0 0 0-1.73-.52c-.288 0-.574.04-.85.12l-5 1.35 1.35-5a3.22 3.22 0 0 0-.4-2.58A22.09 22.09 0 0 1 51.4 5.2m0-3.2a25.29 25.29 0 0 0-21.3 39.06l-1.48 5.43a2.93 2.93 0 0 0 2.81 3.7 2.63 2.63 0 0 0 .78-.11l5.44-1.48A25.34 25.34 0 1 0 51.4 2z"/>
        <path fill="#B8B8B8" fill-rule="nonzero" d="M51.44 16.38h-.11a3.45 3.45 0 0 0-3.28 2.4l-5.36 16.74a2.085 2.085 0 0 0 4 1.18l1.12-4.08h7.08L56 36.7a2.07 2.07 0 0 0 2 1.53h.14a2.08 2.08 0 0 0 2-2.71l-5.42-16.74a3.44 3.44 0 0 0-3.28-2.4zm-2.71 12.84l.65-2.39c.59-2.08 1.19-4.34 1.72-6.54a.15.15 0 0 1 .15-.12.15.15 0 0 1 .16.11l1.87 6.55.64 2.39h-5.19z"/>
    </g>
</svg>
